<svg preserveAspectRatio="none" width="100%" height="100%" overflow="visible" style="display: block;" viewBox="0 0 98.309 54.912" fill="none" xmlns="http://www.w3.org/2000/svg">
<g id="Group 59">
<g id="Group 58">
<g id="Group">
<path id="Vector" d="M65.42 47.8403H32.945L12.561 27.4563L32.946 7.07129H65.421L85.805 27.4563L65.42 47.8403ZM34.066 45.1353H64.3L81.979 27.4563L64.3 9.7773H34.066L16.387 27.4563L34.066 45.1353Z" fill="var(--fill-0, #6ABAED)"/>
</g>
<path id="Vector_2" d="M95.955 25.101C94.809 25.101 93.857 25.92 93.646 27.005H76.187L49.183 0L22.178 27.005H4.664C4.453 25.921 3.501 25.101 2.355 25.101C1.055 25.101 0 26.155 0 27.456C0 28.757 1.054 29.81 2.355 29.81C3.501 29.81 4.453 28.991 4.664 27.907H22.178L49.183 54.912L76.187 27.907H93.646C93.857 28.991 94.809 29.81 95.955 29.81C97.255 29.81 98.309 28.756 98.309 27.456C98.309 26.156 97.255 25.101 95.955 25.101ZM49.183 53.636L23.002 27.456L49.183 1.27501L75.363 27.456L49.183 53.636Z" fill="var(--fill-0, #6ABAED)"/>
</g>
<circle id="Ellipse 5" cx="2" cy="2" r="2" transform="matrix(-1 0 0 1 51 25)" fill="var(--fill-0, #6ABAED)"/>
</g>
</svg>
