<svg preserveAspectRatio="none" width="100%" height="100%" overflow="visible" style="display: block;" viewBox="0 0 291.2 255.392" fill="none" xmlns="http://www.w3.org/2000/svg">
<g id="Info">
<g id="Group" opacity="0.25">
<path id="Vector" d="M2.3216 9.15527e-05H1.6V0.481691H2.3216V9.15527e-05Z" fill="var(--fill-0, white)"/>
<path id="Vector_2" d="M11.4256 0.480183V0.000183105H3.704V0.480183H11.4256Z" fill="var(--fill-0, white)"/>
<path id="Vector_3" d="M18.4304 0.480183V0.000183105H12.808V0.480183H18.4304Z" fill="var(--fill-0, white)"/>
<path id="Vector_4" d="M25.44 0.480183V0.000183105H19.8128V0.480183H25.44Z" fill="var(--fill-0, white)"/>
<path id="Vector_5" d="M29.64 0.480183V0.000183105H26.8176V0.480183H29.64Z" fill="var(--fill-0, white)"/>
<path id="Vector_6" d="M32.4433 0.480183V0.000183105H31.0225V0.480183H32.4433Z" fill="var(--fill-0, white)"/>
<path id="Vector_7" d="M38.7488 0.480183V0.000183105H33.8256V0.480183H38.7488Z" fill="var(--fill-0, white)"/>
<path id="Vector_8" d="M41.5521 0.480183V0.000183105H40.1312V0.480183H41.5521Z" fill="var(--fill-0, white)"/>
<path id="Vector_9" d="M3.0224 2.78565V2.30565H1.6V2.78565H3.0224Z" fill="var(--fill-0, white)"/>
<path id="Vector_10" d="M9.32638 2.30409H4.40479V2.78409H9.32638V2.30409Z" fill="var(--fill-0, white)"/>
<path id="Vector_11" d="M10.7088 2.30409V2.78409H17.7312V2.30409H10.7088Z" fill="var(--fill-0, white)"/>
<path id="Vector_12" d="M21.9344 2.78565V2.30565H19.1136V2.78565H21.9344Z" fill="var(--fill-0, white)"/>
<path id="Vector_13" d="M23.3168 2.30409V2.78409H26.8368V2.30409H23.3168Z" fill="var(--fill-0, white)"/>
<path id="Vector_14" d="M28.2225 2.30409V2.78409H29.6433V2.30409H28.2225Z" fill="var(--fill-0, white)"/>
<path id="Vector_15" d="M31.0256 2.30409V2.78409H37.3488V2.30409H31.0256Z" fill="var(--fill-0, white)"/>
<path id="Vector_16" d="M38.7312 2.78565H40.16V2.30565H38.7392L38.7312 2.78565Z" fill="var(--fill-0, white)"/>
<path id="Vector_17" d="M7.9216 5.08956V4.60956H1.6V5.08956H7.9216Z" fill="var(--fill-0, white)"/>
<path id="Vector_18" d="M12.8256 5.08956V4.60956H9.30557V5.08956H12.8256Z" fill="var(--fill-0, white)"/>
<path id="Vector_19" d="M17.0304 5.08956V4.60956H14.208V5.08956H17.0304Z" fill="var(--fill-0, white)"/>
<path id="Vector_20" d="M24.0352 5.08956V4.60956H18.4128V5.08956H24.0352Z" fill="var(--fill-0, white)"/>
<path id="Vector_21" d="M32.44 5.08956V4.60956H25.4176V5.08956H32.44Z" fill="var(--fill-0, white)"/>
<path id="Vector_22" d="M35.9441 4.608H33.8225V5.088H35.9441V4.608Z" fill="var(--fill-0, white)"/>
<path id="Vector_23" d="M40.848 5.08956V4.60956H37.328V5.08956H40.848Z" fill="var(--fill-0, white)"/>
<path id="Vector_24" d="M1.6 6.9119V7.3919H5.8224V6.9119H1.6Z" fill="var(--fill-0, white)"/>
<path id="Vector_25" d="M7.2 6.9119V7.3919H8.6208V6.9119H7.2Z" fill="var(--fill-0, white)"/>
<path id="Vector_26" d="M10.008 6.9119V7.3919H14.9312V6.9119H10.008Z" fill="var(--fill-0, white)"/>
<path id="Vector_27" d="M16.32 6.9119V7.3919H19.84V6.9119H16.32Z" fill="var(--fill-0, white)"/>
<path id="Vector_28" d="M21.2176 6.9119V7.3919H27.5392V6.9119H21.2176Z" fill="var(--fill-0, white)"/>
<path id="Vector_29" d="M28.9216 6.9119V7.3919H30.344V6.9119H28.9216Z" fill="var(--fill-0, white)"/>
<path id="Vector_30" d="M31.7264 6.9119V7.3919H34.5488V6.9119H31.7264Z" fill="var(--fill-0, white)"/>
<path id="Vector_31" d="M35.9312 6.9119V7.3919H38.752V6.9119H35.9312Z" fill="var(--fill-0, white)"/>
<path id="Vector_32" d="M40.1344 6.9119V7.3919H41.5568V6.9119H40.1344Z" fill="var(--fill-0, white)"/>
</g>
<g id="Group_2" opacity="0.5">
<path id="Vector_33" d="M252.48 248.48V248H249.659V248.48H252.48Z" fill="var(--fill-0, white)"/>
<path id="Vector_34" d="M256.691 248.48V248H253.869V248.48H256.691Z" fill="var(--fill-0, white)"/>
<path id="Vector_35" d="M259.496 248.48V248H258.08V248.48H259.496Z" fill="var(--fill-0, white)"/>
<path id="Vector_36" d="M264.4 248.48V248H260.88V248.48H264.4Z" fill="var(--fill-0, white)"/>
<path id="Vector_37" d="M270.704 248.48V248H265.783V248.48H270.704Z" fill="var(--fill-0, white)"/>
<path id="Vector_38" d="M274.909 248.48V248H272.086V248.48H274.909Z" fill="var(--fill-0, white)"/>
<path id="Vector_39" d="M281.213 248.48V248H276.291V248.48H281.213Z" fill="var(--fill-0, white)"/>
<path id="Vector_40" d="M286.818 248.48V248H282.595V248.48H286.818Z" fill="var(--fill-0, white)"/>
<path id="Vector_41" d="M288.2 248V248.48H289.623V248H288.2Z" fill="var(--fill-0, white)"/>
<path id="Vector_42" d="M254.575 250.304V250.784H257.395V250.304H254.575Z" fill="var(--fill-0, white)"/>
<path id="Vector_43" d="M258.778 250.304V250.784H264.4V250.304H258.778Z" fill="var(--fill-0, white)"/>
<path id="Vector_44" d="M272.8 250.786V250.306H265.778V250.786H272.8Z" fill="var(--fill-0, white)"/>
<path id="Vector_45" d="M274.187 250.304V250.784H276.309V250.304H274.187Z" fill="var(--fill-0, white)"/>
<path id="Vector_46" d="M281.213 250.786V250.306H277.693V250.786H281.213Z" fill="var(--fill-0, white)"/>
<path id="Vector_47" d="M286.818 250.786V250.306H282.595V250.786H286.818Z" fill="var(--fill-0, white)"/>
<path id="Vector_48" d="M288.2 250.304V250.784H289.623V250.304H288.2Z" fill="var(--fill-0, white)"/>
<path id="Vector_49" d="M254.587 252.608H249.666V253.088H254.587V252.608Z" fill="var(--fill-0, white)"/>
<path id="Vector_50" d="M255.97 252.608V253.088H259.49V252.608H255.97Z" fill="var(--fill-0, white)"/>
<path id="Vector_51" d="M267.2 253.09V252.61H260.879V253.09H267.2Z" fill="var(--fill-0, white)"/>
<path id="Vector_52" d="M268.578 252.608V253.088H270V252.608H268.578Z" fill="var(--fill-0, white)"/>
<path id="Vector_53" d="M274.205 253.09V252.61H271.383V253.09H274.205Z" fill="var(--fill-0, white)"/>
<path id="Vector_54" d="M275.587 252.608V253.088H277.709V252.608H275.587Z" fill="var(--fill-0, white)"/>
<path id="Vector_55" d="M280.514 253.09V252.61H279.091V253.09H280.514Z" fill="var(--fill-0, white)"/>
<path id="Vector_56" d="M281.896 252.608V253.088H285.416V252.608H281.896Z" fill="var(--fill-0, white)"/>
<path id="Vector_57" d="M286.8 252.608V253.088H289.623V252.608H286.8Z" fill="var(--fill-0, white)"/>
<path id="Vector_58" d="M254.578 254.912V255.392H260.899V254.912H254.578Z" fill="var(--fill-0, white)"/>
<path id="Vector_59" d="M262.283 254.912V255.392H264.405V254.912H262.283Z" fill="var(--fill-0, white)"/>
<path id="Vector_60" d="M265.787 254.912V255.392H270.709V254.912H265.787Z" fill="var(--fill-0, white)"/>
<path id="Vector_61" d="M272.091 254.912V255.392H277.714V254.912H272.091Z" fill="var(--fill-0, white)"/>
<path id="Vector_62" d="M279.096 254.912V255.392H284.717V254.912H279.096Z" fill="var(--fill-0, white)"/>
<path id="Vector_63" d="M286.099 254.912V255.392H289.619V254.912H286.099Z" fill="var(--fill-0, white)"/>
</g>
<path id="Vector_64" d="M1.6 16.0003H49.6L81.7424 48.1427" stroke="var(--stroke-0, white)" stroke-width="0.48" stroke-miterlimit="10"/>
<path id="Vector_65" d="M1.6 17.6003C2.48366 17.6003 3.2 16.884 3.2 16.0003C3.2 15.1167 2.48366 14.4003 1.6 14.4003C0.716344 14.4003 0 15.1167 0 16.0003C0 16.884 0.716344 17.6003 1.6 17.6003Z" fill="var(--fill-0, #66D9E8)"/>
<path id="Vector_66" d="M289.6 240H241.6L193.6 192" stroke="var(--stroke-0, white)" stroke-width="0.48" stroke-miterlimit="10"/>
<path id="Vector_67" d="M289.6 241.6C290.484 241.6 291.2 240.884 291.2 240C291.2 239.117 290.484 238.4 289.6 238.4C288.716 238.4 288 239.117 288 240C288 240.884 288.716 241.6 289.6 241.6Z" fill="var(--fill-0, #66D9E8)"/>
</g>
</svg>
